<?xml version="1.0" encoding="utf-8"?>
<!-- Generator: Adobe Illustrator 18.1.1, SVG Export Plug-In . SVG Version: 6.00 Build 0)  -->
<svg version="1.1" id="Layer_1" xmlns="http://www.w3.org/2000/svg" xmlns:xlink="http://www.w3.org/1999/xlink" x="0px" y="0px"
	 viewBox="0 0 50 50" enable-background="new 0 0 50 50" xml:space="preserve">
<rect y="0" fill="#FF6600" width="50" height="50"/>
<g>
	<path fill="#FFFFFF" d="M19.7,44.2c-0.7,0.5-1.5,0.7-2.3,0.7c-1.3,0-2-0.9-2-2c0-1.5,1.4-2.4,4.3-2.7v-0.4c0-0.5-0.4-0.8-1.1-0.8
		c-0.7,0-1.3,0.3-1.7,0.8l-1.2-0.7c0.6-0.9,1.6-1.3,2.9-1.3c1.8,0,2.8,0.8,2.8,2c0,0,0,5,0,5h-1.6L19.7,44.2z M17.1,42.8
		c0,0.5,0.3,0.9,0.8,0.9c0.6,0,1.1-0.2,1.7-0.7v-1.6C17.9,41.5,17.1,41.9,17.1,42.8z"/>
	<g>
		<path fill="#FFFFFF" d="M22.9,38.1l1.5-0.2l0.2,0.8c0.8-0.6,1.5-0.9,2.4-0.9c1.4,0,2.1,0.8,2.1,2.2v4.8h-1.8v-4.5
			c0-0.8-0.2-1.2-0.9-1.2c-0.5,0-1.1,0.3-1.7,0.8v4.9h-1.8V38.1z"/>
	</g>
	<path fill="#FFFFFF" d="M41,44.9c-2,0-3.2-1.3-3.2-3.6c0-2.3,1.2-3.6,3.2-3.6c2,0,3.2,1.3,3.2,3.5c0,0.1,0,0.2,0,0.4h-4.6
		c0,1.3,0.6,2,1.6,2c0.7,0,1.1-0.3,1.6-0.9l1.3,0.7C43.5,44.4,42.5,44.9,41,44.9z M42.4,40.5c0-0.9-0.5-1.5-1.4-1.5
		c-0.8,0-1.3,0.5-1.4,1.5H42.4z"/>
	<path fill="#FFFFFF" d="M6.4,45C4.6,45,3,43.9,3,41.4c0-2.5,1.6-3.6,3.4-3.6c1.8,0,3.4,1.1,3.4,3.6C9.8,43.9,8.2,45,6.4,45z
		 M6.4,39.3c-1.4,0-1.6,1.2-1.6,2.1c0,0.9,0.3,2.1,1.6,2.1c1.4,0,1.6-1.2,1.6-2.1C8,40.5,7.7,39.3,6.4,39.3z"/>
	<path fill="#FFFFFF" d="M11,37.9h1.7v0.8c0.3-0.4,1.1-1,1.9-1c0.1,0,0.2,0,0.2,0v1.7c0,0-0.1,0-0.1,0c-0.8,0-1.6,0.1-1.9,0.7v4.6
		H11V37.9z"/>
	<path fill="#FFFFFF" d="M33.5,43.3c1.4,0,1.5-1.4,1.5-2.3c0-1.1-0.5-2-1.5-2c-0.7,0-1.4,0.5-1.4,2C32.1,41.9,32.2,43.3,33.5,43.3z
		 M36.7,37.9v6.5c0,1.2-0.1,3-3.4,3.1c-1.4,0-2.6-0.5-2.9-1.7l1.8-0.3c0.1,0.3,0.3,0.7,1.3,0.7c0.9,0,1.4-0.5,1.4-1.5v-0.8l0,0
		c-0.3,0.5-0.7,1-1.8,1c-1.6,0-2.9-1.1-2.9-3.4c0-2.3,1.3-3.6,2.8-3.6c1.4,0,1.9,0.6,2,1l0,0l0.1-0.8H36.7z"/>
	<path fill="#FFFFFF" d="M44.9,35.6h-0.7v2h-0.4v-2h-0.7v-0.3h1.8V35.6z M47.9,37.6h-0.4v-1.9h0l-0.7,1.9h-0.2l-0.7-1.9h0v1.9h-0.4
		v-2.3h0.6l0.7,1.7l0.7-1.7h0.6V37.6z"/>
</g>
</svg>
